# xmcd
# 
# Track frame offsets:
#     150
#     12855
#     32860
#     49177
#     65975
#     86735
#     103855
#     123262
#     140695
#     155772
#     173025
#     189375
#     205197
#     219260
#     235312
#     251615
#     269659
#     286754
# 
# Disc length: 3996
# 
# Revision: 5
# Processed by: cddbd v1.5.2PL0 Copyright (c) Steve Scherf et al.
# Submitted via: fre:ac v1.0.27
# 
DISCID=100f9a12
DTITLE=LeAnn Rimes - Greatest Hits
DYEAR=2003
DGENRE=Country
TTITLE0=Blue
TTITLE1=How Do I Live
TTITLE2=Can't Fight The Moonlight (Graham Stack Radio Edit)
TTITLE3=One Way Ticket (Because I Can)
TTITLE4=Commitment
TTITLE5=I Need You
TTITLE6=Written In The Stars
TTITLE7=Unchained Melody
TTITLE8=The Light In Your Eyes
TTITLE9=On The Side Of Angels
TTITLE10=You Light Up My Life
TTITLE11=Nothin' New Under The Moon
TTITLE12=Big Deal
TTITLE13=Life Goes On
TTITLE14=We Can
TTITLE15=Last Thing On My Mind
TTITLE16=This Love
TTITLE17=Crazy
EXTD=YEAR: 2003
EXTT0=
EXTT1=
EXTT2=
EXTT3=
EXTT4=
EXTT5=
EXTT6=
EXTT7=
EXTT8=
EXTT9=
EXTT10=
EXTT11=
EXTT12=
EXTT13=
EXTT14=
EXTT15=
EXTT16=
EXTT17=
PLAYORDER=
